<svg width="24" height="24" viewBox="0 0 24 24" fill="none" xmlns="http://www.w3.org/2000/svg">
<g clip-path="url(#clip0_866_6913)">
<path d="M8.7225 6H14.2575V7.5H8.7225V6Z" fill="#A3A3A3"/>
<path d="M5.25 6H7.6425V7.5H5.25V6Z" fill="#A3A3A3"/>
<path d="M5.25 12H10.785V13.5H5.25V12Z" fill="#A3A3A3"/>
<path d="M11.8575 12H14.25V13.5H11.8575V12ZM5.25 9H12V10.5H5.25V9Z" fill="#A3A3A3"/>
<path d="M9.75 0C4.365 0 0 4.365 0 9.75C0 15.135 4.365 19.5 9.75 19.5C15.135 19.5 19.5 15.135 19.5 9.75C19.5 7.16414 18.4728 4.68419 16.6443 2.85571C14.8158 1.02723 12.3359 0 9.75 0ZM9.75 18C5.19375 18 1.5 14.3062 1.5 9.75C1.5 5.19375 5.19375 1.5 9.75 1.5C14.3062 1.5 18 5.19375 18 9.75C18 14.3062 14.3062 18 9.75 18ZM16.9357 17.9947L17.9963 16.9342L23.7772 22.7152L22.7167 23.7757L16.9357 17.9947Z" fill="#A3A3A3"/>
</g>
<defs>
<clipPath id="clip0_866_6913">
<rect width="24" height="24" fill="white"/>
</clipPath>
</defs>
</svg>
