<svg width="54" height="54" viewBox="0 0 54 54" fill="none" xmlns="http://www.w3.org/2000/svg">
<rect x="0.5" y="0.5" width="53" height="53" rx="10" fill="#D84C10"/>
<g clip-path="url(#clip0_864_2147)">
<path fill-rule="evenodd" clip-rule="evenodd" d="M17.099 25.4029C17.0831 24.3025 17.2862 23.2099 17.6964 22.1886C18.1066 21.1674 18.7157 20.2379 19.4882 19.4541C20.2608 18.6703 21.1815 18.048 22.1968 17.6232C23.212 17.1984 24.3016 16.9796 25.4021 16.9796C26.5026 16.9796 27.5922 17.1984 28.6074 17.6232C29.6227 18.048 30.5434 18.6703 31.3159 19.4541C32.0885 20.2379 32.6976 21.1674 33.1078 22.1886C33.518 23.2099 33.7211 24.3025 33.7052 25.4029C33.6739 27.5844 32.7853 29.6659 31.2316 31.1974C29.6778 32.729 27.5838 33.5876 25.4021 33.5876C23.2204 33.5876 21.1263 32.729 19.5726 31.1974C18.0189 29.6659 17.1303 27.5844 17.099 25.4029ZM25.4012 14.5258C23.6854 14.5255 21.9938 14.9313 20.4647 15.7099C18.9356 16.4885 17.6125 17.6178 16.6035 19.0057C15.5944 20.3935 14.928 22.0004 14.6588 23.695C14.3896 25.3896 14.5253 27.1239 15.0546 28.7561C15.5839 30.3883 16.4919 31.8721 17.7044 33.0862C18.917 34.3003 20.3995 35.2103 22.031 35.7418C23.6625 36.2733 25.3966 36.4111 27.0916 36.1442C28.7866 35.8772 30.3944 35.213 31.7835 34.2058L35.5464 37.9686C35.8678 38.2903 36.3039 38.4711 36.7586 38.4712C37.2134 38.4714 37.6496 38.2909 37.9712 37.9695C38.2929 37.648 38.4737 37.212 38.4739 36.7572C38.474 36.3025 38.2935 35.8663 37.9721 35.5446L34.2075 31.7818C35.3829 30.1587 36.087 28.2425 36.2421 26.2446C36.3972 24.2466 35.9972 22.2447 35.0864 20.4597C34.1755 18.6748 32.7892 17.1762 31.0805 16.1293C29.3717 15.0825 27.4069 14.5281 25.403 14.5275L25.4012 14.5258ZM24.1241 21.4275C24.2236 21.527 24.3026 21.6451 24.3564 21.7751C24.4103 21.9051 24.438 22.0445 24.438 22.1852C24.438 22.3259 24.4103 22.4653 24.3564 22.5953C24.3026 22.7253 24.2236 22.8434 24.1241 22.9429L21.4532 25.6155L24.1241 28.2863C24.3251 28.4873 24.438 28.7598 24.438 29.044C24.438 29.3282 24.3251 29.6008 24.1241 29.8018C23.9231 30.0027 23.6506 30.1156 23.3664 30.1156C23.0822 30.1156 22.8096 30.0027 22.6087 29.8018L19.1801 26.3732C19.0806 26.2737 19.0016 26.1556 18.9478 26.0256C18.8939 25.8955 18.8662 25.7562 18.8662 25.6155C18.8662 25.4747 18.8939 25.3354 18.9478 25.2054C19.0016 25.0754 19.0806 24.9573 19.1801 24.8578L22.6087 21.4292C22.7082 21.3297 22.8263 21.2507 22.9563 21.1969C23.0863 21.143 23.2257 21.1153 23.3664 21.1153C23.5071 21.1153 23.6465 21.143 23.7765 21.1969C23.9065 21.2507 24.0246 21.328 24.1241 21.4275ZM28.4098 21.4275C28.2089 21.2265 27.9363 21.1136 27.6521 21.1136C27.3679 21.1136 27.0953 21.2265 26.8944 21.4275C26.6934 21.6284 26.5805 21.901 26.5805 22.1852C26.5805 22.4694 26.6934 22.7419 26.8944 22.9429L29.5652 25.6138L26.8944 28.2863C26.6934 28.4873 26.5805 28.7598 26.5805 29.044C26.5805 29.3282 26.6934 29.6008 26.8944 29.8018C27.0953 30.0027 27.3679 30.1156 27.6521 30.1156C27.9363 30.1156 28.2089 30.0027 28.4098 29.8018L31.8384 26.3732C31.9379 26.2737 32.0168 26.1556 32.0707 26.0256C32.1246 25.8955 32.1523 25.7562 32.1523 25.6155C32.1523 25.4747 32.1246 25.3354 32.0707 25.2054C32.0168 25.0754 31.9379 24.9573 31.8384 24.8578L28.4098 21.4275Z" fill="white"/>
</g>
<defs>
<clipPath id="clip0_864_2147">
<rect width="24" height="24" fill="white" transform="translate(14.5 14.5)"/>
</clipPath>
</defs>
</svg>
