<svg width="24" height="24" viewBox="0 0 24 24" fill="none" xmlns="http://www.w3.org/2000/svg">
<path d="M16.257 3.03998C16.866 3.08198 17.404 3.16898 17.914 3.37998C18.5206 3.63125 19.0718 3.99955 19.5361 4.46385C20.0004 4.92814 20.3687 5.47934 20.62 6.08598C20.831 6.59598 20.919 7.13398 20.96 7.74298C21 8.33498 21 9.06198 21 9.96398V10.035L20.96 12.256C20.918 12.865 20.831 13.403 20.62 13.913C20.3687 14.5196 20.0004 15.0708 19.5361 15.5351C19.0718 15.9994 18.5206 16.3677 17.914 16.619C17.404 16.83 16.866 16.918 16.257 16.959C15.665 16.999 14.938 16.999 14.036 16.999L11.195 17L10.803 17.019C10.629 17.0541 10.4675 17.1348 10.335 17.253C10.278 17.304 10.219 17.374 9.944 17.742L9.922 17.771L8.439 19.687C8.068 20.124 7.648 20.564 7.147 20.771C6.48037 21.0468 5.73665 21.0732 5.05214 20.8453C4.36764 20.6174 3.78819 20.1504 3.42 19.53C3.144 19.064 3.072 18.46 3.037 17.887L3 16.107V9.66498L3.057 7.69098C3.117 6.96198 3.242 6.32198 3.544 5.72998C4.02362 4.78906 4.78886 4.02417 5.73 3.54498C6.322 3.24298 6.962 3.11698 7.691 3.05798C8.242 3.01298 8.893 3.00298 9.665 3.00098H14.68L16.257 3.03998ZM14.59 4.99998H9.813L7.854 5.05098C7.249 5.09998 6.901 5.19298 6.638 5.32698C6.07354 5.61459 5.61462 6.07352 5.327 6.63798C5.193 6.90098 5.101 7.24898 5.051 7.85398C5.01 8.35898 5.002 8.98098 5 9.81298L5.001 16.296L5.033 17.767C5.049 18.035 5.072 18.223 5.098 18.356C5.121 18.468 5.14 18.511 5.141 18.513C5.26382 18.7183 5.45617 18.8727 5.68312 18.9483C5.91008 19.0239 6.15662 19.0156 6.378 18.925C6.38 18.923 6.421 18.902 6.507 18.825C6.608 18.735 6.739 18.598 6.913 18.393L8.343 16.542L8.386 16.484C8.594 16.206 8.777 15.961 9.003 15.76C9.40057 15.405 9.88553 15.1623 10.408 15.057C10.63 15.012 10.857 15.001 11.104 14.999L14 15L16.121 14.964C16.628 14.929 16.923 14.865 17.148 14.771C17.8831 14.4667 18.4673 13.8829 18.772 13.148C18.865 12.923 18.93 12.627 18.965 12.121C19 11.605 19 10.946 19 9.99998L18.964 7.87898C18.929 7.37198 18.865 7.07698 18.771 6.85198C18.4667 6.11685 17.8829 5.53268 17.148 5.22798C16.923 5.13498 16.627 5.06998 16.121 5.03498L14.59 4.99998ZM11 11C11.2652 11 11.5196 11.1053 11.7071 11.2929C11.8946 11.4804 12 11.7348 12 12C12 12.2652 11.8946 12.5195 11.7071 12.7071C11.5196 12.8946 11.2652 13 11 13H8C7.73478 13 7.48043 12.8946 7.29289 12.7071C7.10536 12.5195 7 12.2652 7 12C7 11.7348 7.10536 11.4804 7.29289 11.2929C7.48043 11.1053 7.73478 11 8 11H11ZM16 6.99998C16.2652 6.99998 16.5196 7.10533 16.7071 7.29287C16.8946 7.48041 17 7.73476 17 7.99998C17 8.26519 16.8946 8.51955 16.7071 8.70708C16.5196 8.89462 16.2652 8.99998 16 8.99998H8C7.73478 8.99998 7.48043 8.89462 7.29289 8.70708C7.10536 8.51955 7 8.26519 7 7.99998C7 7.73476 7.10536 7.48041 7.29289 7.29287C7.48043 7.10533 7.73478 6.99998 8 6.99998H16Z" fill="#3E90F0"/>
</svg>
