<svg width="18" height="18" viewBox="0 0 18 18" fill="none" xmlns="http://www.w3.org/2000/svg">
<mask id="path-1-inside-1_864_2398" fill="white">
<path d="M0 9C0 4.02944 4.02944 0 9 0C13.9706 0 18 4.02944 18 9C18 13.9706 13.9706 18 9 18C4.02944 18 0 13.9706 0 9Z"/>
</mask>
<path d="M0 9C0 4.02944 4.02944 0 9 0C13.9706 0 18 4.02944 18 9C18 13.9706 13.9706 18 9 18C4.02944 18 0 13.9706 0 9Z" fill="#3FDD78"/>
<path d="M9 14C6.23858 14 4 11.7614 4 9H-4C-4 16.1797 1.8203 22 9 22V14ZM14 9C14 11.7614 11.7614 14 9 14V22C16.1797 22 22 16.1797 22 9H14ZM9 4C11.7614 4 14 6.23858 14 9H22C22 1.8203 16.1797 -4 9 -4V4ZM9 -4C1.8203 -4 -4 1.8203 -4 9H4C4 6.23858 6.23858 4 9 4V-4Z" fill="#232627" mask="url(#path-1-inside-1_864_2398)"/>
</svg>
