<svg width="20" height="20" viewBox="0 0 20 20" fill="none" xmlns="http://www.w3.org/2000/svg">
<path d="M12.5 1.75C12.6904 1.74952 12.8739 1.82149 13.0132 1.9513C13.1525 2.08112 13.2372 2.25907 13.2501 2.44906C13.2631 2.63904 13.2032 2.82683 13.0828 2.97433C12.9624 3.12184 12.7904 3.21801 12.6016 3.24334L12.5 3.25H7.49996C7.30953 3.25049 7.12605 3.17852 6.98674 3.0487C6.84743 2.91888 6.76271 2.74093 6.74978 2.55095C6.73685 2.36096 6.79666 2.17317 6.91709 2.02567C7.03753 1.87817 7.20956 1.782 7.39829 1.75667L7.49996 1.75H12.5ZM17.5 4.25C17.6904 4.24952 17.8739 4.32149 18.0132 4.4513C18.1525 4.58112 18.2372 4.75907 18.2501 4.94906C18.2631 5.13904 18.2032 5.32683 18.0828 5.47433C17.9624 5.62184 17.7904 5.71801 17.6016 5.74334L17.5 5.75H16.5341L15.9583 14.3842L15.9208 14.8567C15.8416 15.7258 15.7366 16.1675 15.485 16.6083C15.1598 17.179 14.6694 17.6378 14.0783 17.9242L13.8916 18.0083C13.615 18.1225 13.3408 18.1833 12.905 18.215L12.5883 18.2325L12.2125 18.2433L11.2566 18.25L8.24329 18.2492L7.81829 18.2442L7.45662 18.235L7.14829 18.22L6.88495 18.1975C6.60079 18.1658 6.38912 18.1167 6.18496 18.04L6.00995 17.9675L5.92079 17.9258C5.32971 17.6394 4.83928 17.1807 4.51412 16.61L4.37579 16.3392L4.30246 16.1533C4.25746 16.025 4.22079 15.8867 4.18996 15.7217L4.14579 15.4542L4.10746 15.1375L4.05496 14.5475L4.00329 13.8158L3.46496 5.75H2.49996C2.30953 5.75049 2.12606 5.67852 1.98674 5.5487C1.84743 5.41888 1.76271 5.24093 1.74978 5.05095C1.73685 4.86096 1.79666 4.67317 1.91709 4.52567C2.03753 4.37817 2.20956 4.282 2.39829 4.25667L2.49996 4.25H17.5ZM15.0308 5.75H4.96829L5.54412 14.3458L5.59912 14.9633L5.62745 15.1942L5.65745 15.3825L5.69079 15.5367L5.72829 15.6633L5.77079 15.7708L5.81996 15.8667C5.99509 16.1739 6.25919 16.4209 6.57746 16.575L6.68246 16.62L6.80079 16.6567L6.94079 16.6858L7.11245 16.7083L7.32495 16.725L7.58662 16.7367L8.09162 16.7467L8.74496 16.7492L11.8916 16.7467L12.3775 16.7375L12.6333 16.7267L12.8433 16.7117L13.015 16.6917L13.0891 16.68L13.2183 16.6517L13.3283 16.6167L13.4266 16.5742C13.7449 16.42 14.009 16.1731 14.1841 15.8658C14.2458 15.7575 14.2933 15.6283 14.3333 15.44L14.3708 15.23L14.4041 14.9717L14.435 14.6567L14.5033 13.7158L15.0341 5.75H15.0308ZM8.33329 8C8.51463 7.99994 8.68986 8.06559 8.82653 8.18479C8.96319 8.30399 9.05204 8.46867 9.07662 8.64834L9.08329 8.75V12.9167C9.08377 13.1071 9.01181 13.2906 8.88199 13.4299C8.75217 13.5692 8.57422 13.6539 8.38423 13.6668C8.19425 13.6798 8.00646 13.62 7.85896 13.4995C7.71145 13.3791 7.61528 13.2071 7.58995 13.0183L7.58329 12.9167V8.75C7.58329 8.55109 7.66231 8.36032 7.80296 8.21967C7.94361 8.07902 8.13438 8 8.33329 8ZM11.6666 8C11.848 7.99994 12.0232 8.06559 12.1599 8.18479C12.2965 8.30399 12.3854 8.46867 12.41 8.64834L12.4166 8.75V12.9167C12.4171 13.1071 12.3451 13.2906 12.2153 13.4299C12.0855 13.5692 11.9075 13.6539 11.7176 13.6668C11.5276 13.6798 11.3398 13.62 11.1923 13.4995C11.0448 13.3791 10.9486 13.2071 10.9233 13.0183L10.9166 12.9167V8.75C10.9166 8.55109 10.9956 8.36032 11.1363 8.21967C11.2769 8.07902 11.4677 8 11.6666 8Z" fill="#6C7275"/>
</svg>
