<svg width="53" height="53" viewBox="0 0 53 53" fill="none" xmlns="http://www.w3.org/2000/svg">
<rect width="53" height="53" rx="10" fill="#3FDD78"/>
<g clip-path="url(#clip0_864_2141)">
<path d="M37.7137 34.5091C37.7137 34.9909 37.5455 35.4 37.2091 35.7364L35.75 37.2091C35.3955 37.5455 34.9819 37.7137 34.5091 37.7137C34.0273 37.7137 33.6182 37.5455 33.2819 37.2091L28.3319 32.2455C27.9864 31.9182 27.8137 31.5091 27.8137 31.0182C27.8137 30.5364 28.0091 30.1 28.4 29.7091L24.9091 26.2182L23.1909 27.9364C23.0637 28.0637 22.9091 28.1273 22.7273 28.1273C22.5455 28.1273 22.3909 28.0637 22.2637 27.9364C22.2819 27.9546 22.3387 28.0091 22.4341 28.1C22.5296 28.1909 22.5864 28.25 22.6046 28.2773C22.6228 28.3046 22.6682 28.3569 22.7409 28.4341C22.8137 28.5114 22.8591 28.5728 22.8773 28.6182C22.8955 28.6637 22.9228 28.725 22.9591 28.8023C22.9955 28.8796 23.0205 28.9546 23.0341 29.0273C23.0478 29.1 23.0546 29.1819 23.0546 29.2728C23.0546 29.6182 22.9273 29.9273 22.6728 30.2C22.6455 30.2273 22.5705 30.3091 22.4478 30.4455C22.325 30.5819 22.2387 30.675 22.1887 30.725C22.1387 30.775 22.0546 30.85 21.9364 30.95C21.8182 31.05 21.7182 31.1205 21.6364 31.1614C21.5546 31.2023 21.4546 31.2432 21.3364 31.2841C21.2182 31.325 21.1 31.3455 20.9819 31.3455C20.6182 31.3455 20.3091 31.2182 20.0546 30.9637L14.4909 25.4C14.2364 25.1455 14.1091 24.8364 14.1091 24.4728C14.1091 24.3546 14.1296 24.2364 14.1705 24.1182C14.2114 24 14.2523 23.9 14.2932 23.8182C14.3341 23.7364 14.4046 23.6364 14.5046 23.5182C14.6046 23.4 14.6796 23.3159 14.7296 23.2659C14.7796 23.2159 14.8728 23.1296 15.0091 23.0069C15.1455 22.8841 15.2273 22.8091 15.2546 22.7819C15.5273 22.5273 15.8364 22.4 16.1819 22.4C16.2728 22.4 16.3546 22.4069 16.4273 22.4205C16.5 22.4341 16.575 22.4591 16.6523 22.4955C16.7296 22.5319 16.7909 22.5591 16.8364 22.5773C16.8819 22.5955 16.9432 22.6409 17.0205 22.7137C17.0978 22.7864 17.15 22.8319 17.1773 22.85C17.2046 22.8682 17.2637 22.925 17.3546 23.0205C17.4455 23.1159 17.5 23.1728 17.5182 23.1909C17.3909 23.0637 17.3273 22.9091 17.3273 22.7273C17.3273 22.5455 17.3909 22.3909 17.5182 22.2637L22.2637 17.5182C22.3909 17.3909 22.5455 17.3273 22.7273 17.3273C22.9091 17.3273 23.0637 17.3909 23.1909 17.5182C23.1728 17.5 23.1159 17.4455 23.0205 17.3546C22.925 17.2637 22.8682 17.2046 22.85 17.1773C22.8319 17.15 22.7864 17.0978 22.7137 17.0205C22.6409 16.9432 22.5955 16.8819 22.5773 16.8364C22.5591 16.7909 22.5319 16.7296 22.4955 16.6523C22.4591 16.575 22.4341 16.5 22.4205 16.4273C22.4069 16.3546 22.4 16.2728 22.4 16.1819C22.4 15.8364 22.5273 15.5273 22.7819 15.2546C22.8091 15.2273 22.8841 15.1455 23.0069 15.0091C23.1296 14.8728 23.2159 14.7796 23.2659 14.7296C23.3159 14.6796 23.4 14.6046 23.5182 14.5046C23.6364 14.4046 23.7364 14.3341 23.8182 14.2932C23.9 14.2523 24 14.2114 24.1182 14.1705C24.2364 14.1296 24.3546 14.1091 24.4728 14.1091C24.8364 14.1091 25.1455 14.2364 25.4 14.4909L30.9637 20.0546C31.2182 20.3091 31.3455 20.6182 31.3455 20.9819C31.3455 21.1 31.325 21.2182 31.2841 21.3364C31.2432 21.4546 31.2023 21.5546 31.1614 21.6364C31.1205 21.7182 31.05 21.8182 30.95 21.9364C30.85 22.0546 30.775 22.1387 30.725 22.1887C30.675 22.2387 30.5819 22.325 30.4455 22.4478C30.3091 22.5705 30.2273 22.6455 30.2 22.6728C29.9273 22.9273 29.6182 23.0546 29.2728 23.0546C29.1819 23.0546 29.1 23.0478 29.0273 23.0341C28.9546 23.0205 28.8796 22.9955 28.8023 22.9591C28.725 22.9228 28.6637 22.8955 28.6182 22.8773C28.5728 22.8591 28.5114 22.8137 28.4341 22.7409C28.3569 22.6682 28.3046 22.6228 28.2773 22.6046C28.25 22.5864 28.1909 22.5296 28.1 22.4341C28.0091 22.3387 27.9546 22.2819 27.9364 22.2637C28.0637 22.3909 28.1273 22.5455 28.1273 22.7273C28.1273 22.9091 28.0637 23.0637 27.9364 23.1909L26.2182 24.9091L29.7091 28.4C30.1 28.0091 30.5364 27.8137 31.0182 27.8137C31.4909 27.8137 31.9046 27.9819 32.2591 28.3182L37.2091 33.2682C37.5455 33.6228 37.7137 34.0364 37.7137 34.5091Z" fill="white"/>
</g>
<defs>
<clipPath id="clip0_864_2141">
<rect width="24" height="24" fill="white" transform="translate(14 14)"/>
</clipPath>
</defs>
</svg>
