<svg width="221" height="41" viewBox="0 0 221 41" fill="none" xmlns="http://www.w3.org/2000/svg">
<g clip-path="url(#clip0_1001_535)">
<path d="M35.9857 11.3749L35.9782 6.04737L26.1469 -0.378662V3.73114L32.6316 8.0008L32.6366 11.2734L29.6242 13.3131L27.5691 11.8137V9.27434L24.22 6.98346V11.6058L18.9111 14.8632L18.9011 23.4684L15.1475 25.5817L13.2205 24.0722V21.5809L15.5017 20.0181V19.9979V16.1417L11.3964 18.8892L8.25836 16.8471L5.3917 18.7244L9.87139 21.7915V23.6739L6.64289 25.8582L3.34908 23.6282V16.2078L8.23833 12.897L8.24334 9.71326L14.5143 13.7519L19.7855 10.2434L16.572 8.36859L14.4692 9.78673L9.88896 6.75772L15.0545 3.74637L19.5292 6.36959V2.45762L15.0595 -0.163034L4.89926 5.76072L4.89172 11.0907L0 14.4039V25.432L4.89172 28.7452L4.89926 34.0753L14.7305 40.4988V36.3915L8.24579 32.1218L8.24079 28.8492L11.2532 26.8095L13.3084 28.3088V30.8483L16.6574 33.1392V28.5169L22.0416 25.2594L22.1019 16.6542L25.7299 14.541L27.6569 16.0505V18.5417L25.3757 20.1044V20.1247V23.9808L29.481 21.2333L32.6191 23.2756L35.4857 21.3983L31.006 18.3286V16.4487L34.2345 14.2644L37.5283 16.4944V23.9149L32.6391 27.2256L32.6341 30.4094L26.3631 26.3681L21.0919 29.8539L24.3054 31.7261L26.4082 30.3358L30.9885 33.3649L25.8229 36.3763L21.3482 33.7531V37.6625L25.8179 40.2831L35.9782 34.3619L35.9857 29.0318L40.8774 25.7186V14.6881L35.9857 11.3749Z" fill="#0084FF"/>
<path d="M47.4538 28.0599V11.3327H50.9904V25.1441H58.1616V28.0599H47.4538ZM64.1556 28.305C62.8651 28.305 61.7544 28.0436 60.8232 27.5209C59.8976 26.9927 59.1843 26.2467 58.6833 25.2829C58.1824 24.3137 57.9319 23.1675 57.9319 21.8444C57.9319 20.5539 58.1824 19.4213 58.6833 18.4467C59.1843 17.472 59.8894 16.7124 60.7987 16.1679C61.7135 15.6234 62.7862 15.3511 64.0168 15.3511C64.8444 15.3511 65.6149 15.4845 66.3282 15.7513C67.047 16.0127 67.6731 16.4075 68.2068 16.9356C68.7458 17.4638 69.1651 18.1281 69.4646 18.9285C69.7641 19.7235 69.9138 20.6546 69.9138 21.7219V22.6775H59.3204V20.5212H66.6386C66.6386 20.0203 66.5297 19.5765 66.3119 19.1899C66.0941 18.8033 65.7919 18.5011 65.4053 18.2833C65.0241 18.0601 64.5803 17.9484 64.074 17.9484C63.5458 17.9484 63.0775 18.0709 62.6691 18.316C62.2662 18.5556 61.9504 18.8795 61.7217 19.2879C61.493 19.6909 61.3759 20.1401 61.3705 20.6356V22.6856C61.3705 23.3064 61.4848 23.8427 61.7135 24.2947C61.9477 24.7466 62.2771 25.0951 62.7018 25.3401C63.1265 25.5851 63.6302 25.7077 64.2128 25.7077C64.5994 25.7077 64.9533 25.6532 65.2746 25.5443C65.5959 25.4354 65.8708 25.2721 66.0995 25.0543C66.3282 24.8365 66.5025 24.5696 66.6222 24.2538L69.8403 24.4662C69.6769 25.2394 69.3421 25.9146 68.8357 26.4918C68.3347 27.0635 67.6868 27.51 66.8918 27.8312C66.1022 28.1471 65.1902 28.305 64.1556 28.305ZM72.8675 15.5145L75.1707 19.9005L77.5312 15.5145H81.1004L77.4658 21.7872L81.1984 28.0599H77.6455L75.1707 23.7229L72.7368 28.0599H69.143L72.8675 21.7872L69.2737 15.5145H72.8675ZM79.9437 14.2485V11.3327H93.6816V14.2485H88.5605V28.0599H85.0648V14.2485H79.9437ZM97.7767 28.305C96.4862 28.305 95.3754 28.0436 94.4443 27.5209C93.5187 26.9927 92.8054 26.2467 92.3044 25.2829C91.8035 24.3137 91.553 23.1675 91.553 21.8444C91.553 20.5539 91.8035 19.4213 92.3044 18.4467C92.8054 17.472 93.5105 16.7124 94.4198 16.1679C95.3346 15.6234 96.4073 15.3511 97.6379 15.3511C98.4655 15.3511 99.236 15.4845 99.9493 15.7513C100.668 16.0127 101.294 16.4075 101.828 16.9356C102.367 17.4638 102.786 18.1281 103.086 18.9285C103.385 19.7235 103.535 20.6546 103.535 21.7219V22.6775H92.9415V20.5212H100.26C100.26 20.0203 100.151 19.5765 99.933 19.1899C99.7152 18.8033 99.413 18.5011 99.0264 18.2833C98.6452 18.0601 98.2014 17.9484 97.695 17.9484C97.1669 17.9484 96.6986 18.0709 96.2902 18.316C95.8873 18.5556 95.5715 18.8795 95.3428 19.2879C95.1141 19.6909 94.997 20.1401 94.9916 20.6356V22.6856C94.9916 23.3064 95.1059 23.8427 95.3346 24.2947C95.5687 24.7466 95.8982 25.0951 96.3229 25.3401C96.7476 25.5851 97.2513 25.7077 97.8339 25.7077C98.2205 25.7077 98.5744 25.6532 98.8957 25.5443C99.2169 25.4354 99.4919 25.2721 99.7206 25.0543C99.9493 24.8365 100.124 24.5696 100.243 24.2538L103.461 24.4662C103.298 25.2394 102.963 25.9146 102.457 26.4918C101.956 27.0635 101.308 27.51 100.513 27.8312C99.7233 28.1471 98.8113 28.305 97.7767 28.305ZM109.474 28.305C108.189 28.305 107.083 28.0327 106.158 27.4882C105.238 26.9383 104.53 26.1759 104.034 25.2013C103.544 24.2266 103.299 23.1049 103.299 21.8362C103.299 20.5512 103.547 19.424 104.042 18.4548C104.543 17.4802 105.254 16.7206 106.174 16.1761C107.094 15.6261 108.189 15.3511 109.457 15.3511C110.552 15.3511 111.51 15.5499 112.332 15.9474C113.155 16.3449 113.805 16.903 114.285 17.6217C114.764 18.3405 115.028 19.1845 115.077 20.1537H111.793C111.701 19.5275 111.456 19.0238 111.058 18.6427C110.666 18.2561 110.152 18.0628 109.515 18.0628C108.976 18.0628 108.505 18.2098 108.102 18.5038C107.704 18.7924 107.394 19.2144 107.171 19.7698C106.947 20.3252 106.836 20.9977 106.836 21.7872C106.836 22.5876 106.945 23.2683 107.162 23.8291C107.386 24.39 107.699 24.8174 108.102 25.1114C108.505 25.4055 108.976 25.5525 109.515 25.5525C109.912 25.5525 110.269 25.4708 110.585 25.3075C110.906 25.1441 111.17 24.9072 111.377 24.5969C111.589 24.2811 111.728 23.9026 111.793 23.4616H115.077C115.022 24.4199 114.761 25.2639 114.293 25.9935C113.83 26.7177 113.19 27.284 112.373 27.6924C111.557 28.1008 110.59 28.305 109.474 28.305ZM118.784 20.8071V28.0599H115.305V11.3327H118.686V17.7279H118.833C119.116 16.9874 119.573 16.4075 120.205 15.9882C120.837 15.5635 121.629 15.3511 122.582 15.3511C123.453 15.3511 124.213 15.5417 124.861 15.9229C125.514 16.2986 126.02 16.8404 126.38 17.5482C126.745 18.2506 126.924 19.0919 126.919 20.072V28.0599H123.439V20.6927C123.445 19.9195 123.249 19.3179 122.851 18.8877C122.459 18.4575 121.909 18.2425 121.202 18.2425C120.728 18.2425 120.309 18.3432 119.944 18.5447C119.584 18.7461 119.301 19.0402 119.094 19.4268C118.893 19.8079 118.789 20.268 118.784 20.8071ZM133.929 28.0599H130.139L135.914 11.3327H140.471L146.237 28.0599H142.448L138.258 15.1551H138.127L133.929 28.0599ZM133.692 21.485H142.644V24.2457H133.692V21.485ZM156.332 19.0919L153.146 19.2879C153.092 19.0157 152.975 18.7706 152.795 18.5528C152.615 18.3296 152.378 18.1526 152.084 18.0219C151.796 17.8858 151.45 17.8177 151.047 17.8177C150.508 17.8177 150.053 17.9321 149.683 18.1608C149.313 18.384 149.128 18.6835 149.128 19.0592C149.128 19.3587 149.248 19.6119 149.487 19.8188C149.727 20.0257 150.138 20.1918 150.72 20.317L152.991 20.7744C154.211 21.0249 155.12 21.4278 155.719 21.9832C156.318 22.5386 156.617 23.2683 156.617 24.1722C156.617 24.9944 156.375 25.7158 155.891 26.3366C155.411 26.9573 154.753 27.4419 153.914 27.7904C153.081 28.1334 152.12 28.305 151.031 28.305C149.37 28.305 148.047 27.9592 147.061 27.2677C146.081 26.5707 145.507 25.6233 145.338 24.4253L148.76 24.2457C148.864 24.7521 149.114 25.1387 149.512 25.4055C149.909 25.6668 150.418 25.7975 151.039 25.7975C151.649 25.7975 152.139 25.6804 152.509 25.4463C152.885 25.2067 153.075 24.8991 153.081 24.5234C153.075 24.2075 152.942 23.9489 152.681 23.7474C152.419 23.5405 152.016 23.3826 151.472 23.2737L149.299 22.8408C148.074 22.5958 147.162 22.1711 146.563 21.5667C145.97 20.9623 145.673 20.1918 145.673 19.2552C145.673 18.4494 145.891 17.7551 146.326 17.1725C146.767 16.5899 147.385 16.1407 148.18 15.8249C148.981 15.509 149.917 15.3511 150.99 15.3511C152.574 15.3511 153.821 15.686 154.731 16.3557C155.646 17.0255 156.179 17.9375 156.332 19.0919ZM167.247 19.0919L164.061 19.2879C164.007 19.0157 163.89 18.7706 163.71 18.5528C163.53 18.3296 163.294 18.1526 162.999 18.0219C162.711 17.8858 162.365 17.8177 161.962 17.8177C161.423 17.8177 160.968 17.9321 160.598 18.1608C160.228 18.384 160.043 18.6835 160.043 19.0592C160.043 19.3587 160.163 19.6119 160.402 19.8188C160.642 20.0257 161.053 20.1918 161.635 20.317L163.906 20.7744C165.126 21.0249 166.035 21.4278 166.634 21.9832C167.233 22.5386 167.532 23.2683 167.532 24.1722C167.532 24.9944 167.29 25.7158 166.806 26.3366C166.326 26.9573 165.668 27.4419 164.829 27.7904C163.996 28.1334 163.035 28.305 161.946 28.305C160.285 28.305 158.962 27.9592 157.976 27.2677C156.996 26.5707 156.422 25.6233 156.253 24.4253L159.675 24.2457C159.779 24.7521 160.029 25.1387 160.427 25.4055C160.824 25.6668 161.333 25.7975 161.954 25.7975C162.564 25.7975 163.054 25.6804 163.424 25.4463C163.8 25.2067 163.99 24.8991 163.996 24.5234C163.99 24.2075 163.857 23.9489 163.596 23.7474C163.334 23.5405 162.931 23.3826 162.387 23.2737L160.214 22.8408C158.989 22.5958 158.077 22.1711 157.478 21.5667C156.885 20.9623 156.588 20.1918 156.588 19.2552C156.588 18.4494 156.806 17.7551 157.241 17.1725C157.682 16.5899 158.3 16.1407 159.095 15.8249C159.896 15.509 160.832 15.3511 161.905 15.3511C163.49 15.3511 164.736 15.686 165.646 16.3557C166.561 17.0255 167.094 17.9375 167.247 19.0919ZM167.723 28.0599V15.5145H171.203V28.0599H167.723ZM169.471 13.8973C168.954 13.8973 168.51 13.7258 168.14 13.3827C167.775 13.0342 167.593 12.6177 167.593 12.1331C167.593 11.6539 167.775 11.2428 168.14 10.8998C168.51 10.5513 168.954 10.3771 169.471 10.3771C169.989 10.3771 170.43 10.5513 170.794 10.8998C171.165 11.2428 171.35 11.6539 171.35 12.1331C171.35 12.6177 171.165 13.0342 170.794 13.3827C170.43 13.7258 169.989 13.8973 169.471 13.8973ZM182.428 19.0919L179.243 19.2879C179.188 19.0157 179.071 18.7706 178.892 18.5528C178.712 18.3296 178.475 18.1526 178.181 18.0219C177.893 17.8858 177.547 17.8177 177.144 17.8177C176.605 17.8177 176.15 17.9321 175.78 18.1608C175.41 18.384 175.224 18.6835 175.224 19.0592C175.224 19.3587 175.344 19.6119 175.584 19.8188C175.823 20.0257 176.234 20.1918 176.817 20.317L179.088 20.7744C180.307 21.0249 181.217 21.4278 181.816 21.9832C182.415 22.5386 182.714 23.2683 182.714 24.1722C182.714 24.9944 182.472 25.7158 181.987 26.3366C181.508 26.9573 180.849 27.4419 180.011 27.7904C179.178 28.1334 178.217 28.305 177.127 28.305C175.467 28.305 174.144 27.9592 173.158 27.2677C172.178 26.5707 171.603 25.6233 171.435 24.4253L174.857 24.2457C174.96 24.7521 175.211 25.1387 175.608 25.4055C176.006 25.6668 176.515 25.7975 177.136 25.7975C177.746 25.7975 178.236 25.6804 178.606 25.4463C178.982 25.2067 179.172 24.8991 179.178 24.5234C179.172 24.2075 179.039 23.9489 178.777 23.7474C178.516 23.5405 178.113 23.3826 177.569 23.2737L175.396 22.8408C174.171 22.5958 173.259 22.1711 172.66 21.5667C172.066 20.9623 171.77 20.1918 171.77 19.2552C171.77 18.4494 171.987 17.7551 172.423 17.1725C172.864 16.5899 173.482 16.1407 174.277 15.8249C175.077 15.509 176.014 15.3511 177.087 15.3511C178.671 15.3511 179.918 15.686 180.827 16.3557C181.742 17.0255 182.276 17.9375 182.428 19.0919ZM189.578 15.5145V18.1281H182.023V15.5145H189.578ZM183.738 12.5088H187.218V24.2048C187.218 24.5261 187.267 24.7766 187.365 24.9562C187.463 25.1305 187.599 25.253 187.773 25.3238C187.953 25.3946 188.16 25.43 188.394 25.43C188.557 25.43 188.72 25.4164 188.884 25.3891C189.047 25.3565 189.172 25.332 189.259 25.3156L189.807 27.9048C189.632 27.9592 189.387 28.0218 189.072 28.0926C188.756 28.1688 188.372 28.2151 187.92 28.2315C187.081 28.2641 186.346 28.1525 185.715 27.8966C185.089 27.6407 184.601 27.2432 184.253 26.7041C183.904 26.1651 183.733 25.4844 183.738 24.6622V12.5088ZM193.422 28.2968C192.622 28.2968 191.908 28.1579 191.282 27.8802C190.656 27.5971 190.16 27.1806 189.796 26.6306C189.436 26.0752 189.256 25.3837 189.256 24.556C189.256 23.8591 189.384 23.2737 189.64 22.8C189.896 22.3263 190.245 21.9451 190.686 21.6565C191.127 21.3679 191.628 21.1501 192.189 21.0031C192.755 20.8561 193.348 20.7526 193.969 20.6927C194.699 20.6165 195.287 20.5457 195.733 20.4804C196.18 20.4096 196.504 20.3061 196.705 20.17C196.907 20.0339 197.008 19.8324 197.008 19.5656V19.5166C197.008 18.9993 196.844 18.5991 196.517 18.316C196.196 18.0328 195.739 17.8913 195.145 17.8913C194.519 17.8913 194.021 18.0301 193.651 18.3078C193.28 18.5801 193.035 18.9231 192.916 19.3369L189.698 19.0756C189.861 18.3133 190.182 17.6544 190.661 17.099C191.14 16.5382 191.758 16.108 192.515 15.8085C193.278 15.5036 194.16 15.3511 195.162 15.3511C195.859 15.3511 196.526 15.4328 197.163 15.5962C197.805 15.7595 198.374 16.0127 198.87 16.3557C199.371 16.6988 199.765 17.1398 200.054 17.6789C200.343 18.2125 200.487 18.8523 200.487 19.5983V28.0599H197.187V26.3202H197.089C196.888 26.7123 196.618 27.058 196.281 27.3575C195.943 27.6516 195.537 27.883 195.064 28.0518C194.59 28.2151 194.043 28.2968 193.422 28.2968ZM194.418 25.8955C194.93 25.8955 195.382 25.7948 195.774 25.5933C196.166 25.3864 196.474 25.1087 196.697 24.7602C196.92 24.4117 197.032 24.017 197.032 23.5759V22.2446C196.923 22.3154 196.773 22.3807 196.583 22.4406C196.398 22.4951 196.188 22.5468 195.954 22.5958C195.72 22.6394 195.486 22.6802 195.252 22.7183C195.017 22.751 194.805 22.7809 194.614 22.8082C194.206 22.8681 193.849 22.9633 193.544 23.094C193.24 23.2247 193.003 23.4017 192.834 23.6249C192.665 23.8427 192.581 24.115 192.581 24.4417C192.581 24.9154 192.752 25.2775 193.095 25.528C193.444 25.773 193.885 25.8955 194.418 25.8955ZM204.666 20.8071V28.0599H201.186V15.5145H204.502V17.7279H204.649C204.927 16.9983 205.393 16.4211 206.046 15.9964C206.699 15.5662 207.492 15.3511 208.423 15.3511C209.294 15.3511 210.054 15.5417 210.702 15.9229C211.35 16.304 211.853 16.8485 212.213 17.5564C212.572 18.2588 212.752 19.0973 212.752 20.072V28.0599H209.272V20.6927C209.278 19.925 209.082 19.326 208.684 18.8959C208.287 18.4603 207.739 18.2425 207.043 18.2425C206.574 18.2425 206.16 18.3432 205.801 18.5447C205.447 18.7461 205.169 19.0402 204.968 19.4268C204.772 19.8079 204.671 20.268 204.666 20.8071ZM220.167 15.5145V18.1281H212.612V15.5145H220.167ZM214.327 12.5088H217.806V24.2048C217.806 24.5261 217.855 24.7766 217.953 24.9562C218.051 25.1305 218.188 25.253 218.362 25.3238C218.542 25.3946 218.748 25.43 218.983 25.43C219.146 25.43 219.309 25.4164 219.473 25.3891C219.636 25.3565 219.761 25.332 219.848 25.3156L220.396 27.9048C220.221 27.9592 219.976 28.0218 219.661 28.0926C219.345 28.1688 218.961 28.2151 218.509 28.2315C217.67 28.2641 216.935 28.1525 216.304 27.8966C215.677 27.6407 215.19 27.2432 214.842 26.7041C214.493 26.1651 214.322 25.4844 214.327 24.6622V12.5088Z" fill="#141718"/>
</g>
<defs>
<clipPath id="clip0_1001_535">
<rect width="221" height="41" fill="white"/>
</clipPath>
</defs>
</svg>
