<svg width="25" height="25" viewBox="0 0 25 25" fill="none" xmlns="http://www.w3.org/2000/svg">
<path d="M6.50488 4.50006C5.97445 4.50006 5.46574 4.71077 5.09067 5.08584C4.7156 5.46092 4.50488 5.96962 4.50488 6.50006C4.50488 7.03049 4.7156 7.5392 5.09067 7.91427C5.46574 8.28934 5.97445 8.50006 6.50488 8.50006C7.03532 8.50006 7.54403 8.28934 7.9191 7.91427C8.29417 7.5392 8.50488 7.03049 8.50488 6.50006C8.50488 5.96962 8.29417 5.46092 7.9191 5.08584C7.54403 4.71077 7.03532 4.50006 6.50488 4.50006ZM2.50488 6.50006C2.50392 5.52579 2.85857 4.58467 3.50226 3.85333C4.14595 3.12199 5.03443 2.65072 6.00093 2.52798C6.96743 2.40523 7.94551 2.63945 8.75157 3.18667C9.55764 3.73388 10.1363 4.55648 10.3789 5.50006H18.5879L18.6689 5.51406C19.5103 5.66257 20.305 6.00683 20.9889 6.51906C21.7929 7.13706 22.5049 8.11406 22.5049 9.50006C22.5049 10.8861 21.7949 11.8631 20.9879 12.4811C20.3043 12.9931 19.51 13.3374 18.6689 13.4861L18.5879 13.5001H6.50488C6.26788 13.5001 5.73288 13.6481 5.25488 14.0301C4.80788 14.3881 4.50488 14.8721 4.50488 15.5001C4.50488 16.1281 4.80788 16.6121 5.25488 16.9701C5.73288 17.3521 6.26788 17.5001 6.50488 17.5001H17.5049V15.0001L22.1719 18.5001L17.5049 22.0001V19.5001H6.50488C5.74188 19.5001 4.77688 19.1481 4.00488 18.5301C3.20188 17.8891 2.50488 16.8731 2.50488 15.5001C2.50488 14.1271 3.20188 13.1121 4.00488 12.4701C4.77688 11.8511 5.74188 11.5001 6.50488 11.5001H18.4149C18.7889 11.4251 19.3319 11.2301 19.7719 10.8941C20.2159 10.5541 20.5049 10.1141 20.5049 9.50006C20.5049 8.88606 20.2149 8.44706 19.7719 8.10606C19.3681 7.80924 18.9054 7.60259 18.4149 7.50006H10.3789C10.1332 8.44055 9.55352 9.25945 8.74821 9.80386C7.9429 10.3483 6.96698 10.581 6.00266 10.4585C5.03835 10.336 4.15157 9.86677 3.50791 9.13834C2.86425 8.40991 2.50772 7.47211 2.50488 6.50006Z" fill="white"/>
</svg>
