<svg width="42" height="42" viewBox="0 0 42 42" fill="none" xmlns="http://www.w3.org/2000/svg">
<rect width="42" height="42" rx="21" fill="#D84C10" fill-opacity="0.2"/>
<path d="M28 29H14C12.4 29 12 27.667 12 27V15C12 14.4696 12.2107 13.9609 12.5858 13.5858C12.9609 13.2107 13.4696 13 14 13H24C24.5304 13 25.0391 13.2107 25.4142 13.5858C25.7893 13.9609 26 14.4696 26 15V21M28 29C27.333 29 26 28.6 26 27V21M28 29C29.6 29 30 27.667 30 27V21H26" stroke="#D84C10" stroke-width="2" stroke-linecap="round" stroke-linejoin="round"/>
</svg>
