<svg width="24" height="24" viewBox="0 0 24 24" fill="none" xmlns="http://www.w3.org/2000/svg">
<path d="M12 3C13.1819 3 14.3522 3.23279 15.4442 3.68508C16.5361 4.13738 17.5282 4.80031 18.364 5.63604C19.1997 6.47177 19.8626 7.46392 20.3149 8.55585C20.7672 9.64778 21 10.8181 21 12C21 13.1819 20.7672 14.3522 20.3149 15.4442C19.8626 16.5361 19.1997 17.5282 18.364 18.364C17.5282 19.1997 16.5361 19.8626 15.4442 20.3149C14.3522 20.7672 13.1819 21 12 21C10.8181 21 9.64778 20.7672 8.55585 20.3149C7.46392 19.8626 6.47177 19.1997 5.63604 18.364C4.80031 17.5282 4.13738 16.5361 3.68508 15.4442C3.23279 14.3522 3 13.1819 3 12C3 10.8181 3.23279 9.64778 3.68508 8.55585C4.13738 7.46392 4.80031 6.47177 5.63604 5.63604C6.47177 4.80031 7.46392 4.13738 8.55585 3.68508C9.64778 3.23279 10.8181 3 12 3ZM12 7.25C11.8011 7.25 11.6103 7.32902 11.4697 7.46967C11.329 7.61032 11.25 7.80109 11.25 8V11.25H8L7.898 11.257C7.70975 11.2829 7.53835 11.3793 7.41843 11.5267C7.29852 11.6741 7.23902 11.8615 7.25197 12.0511C7.26493 12.2407 7.34936 12.4183 7.48821 12.548C7.62706 12.6778 7.80998 12.7499 8 12.75H11.25V16L11.257 16.102C11.2829 16.2902 11.3793 16.4617 11.5267 16.5816C11.6741 16.7015 11.8615 16.761 12.0511 16.748C12.2407 16.7351 12.4183 16.6506 12.548 16.5118C12.6778 16.3729 12.7499 16.19 12.75 16V12.75H16L16.102 12.743C16.2902 12.7171 16.4617 12.6207 16.5816 12.4733C16.7015 12.3259 16.761 12.1385 16.748 11.9489C16.7351 11.7593 16.6506 11.5817 16.5118 11.452C16.3729 11.3222 16.19 11.2501 16 11.25H12.75V8L12.743 7.898C12.7184 7.71845 12.6295 7.55389 12.4929 7.43477C12.3563 7.31564 12.1812 7.25001 12 7.25Z" fill="#6C7275"/>
</svg>
