<svg width="25" height="25" viewBox="0 0 25 25" fill="none" xmlns="http://www.w3.org/2000/svg">
<path d="M11.1401 3.07993C11.395 3.08021 11.6402 3.1778 11.8255 3.35277C12.0108 3.52774 12.1224 3.76688 12.1373 4.02132C12.1522 4.27576 12.0695 4.5263 11.9059 4.72176C11.7423 4.91721 11.5102 5.04282 11.2571 5.07293L11.1401 5.07993L7.47614 5.08093L6.72414 5.08993L6.42514 5.09793L6.17114 5.10993L5.86114 5.13493L5.69414 5.15693L5.55314 5.18393L5.43214 5.21593L5.32614 5.25393L5.23014 5.29793C4.85383 5.48967 4.54788 5.79562 4.35614 6.17193L4.30814 6.27793L4.26714 6.39692L4.23314 6.53592L4.20514 6.70193L4.18314 6.90193L4.15914 7.28193L4.14914 7.59893L4.13914 8.41693V16.7439L4.14914 17.5619L4.15914 17.8789L4.17414 18.1439L4.18314 18.2589L4.20514 18.4589L4.23314 18.6249L4.26714 18.7639L4.30814 18.8829L4.35614 18.9889C4.54788 19.3652 4.85383 19.6712 5.23014 19.8629L5.33614 19.9109L5.45514 19.9519L5.59414 19.9859L5.76014 20.0139L5.96014 20.0359L6.34014 20.0599L6.65714 20.0699L7.47514 20.0799H15.8021L16.6201 20.0699L16.9371 20.0599L17.2021 20.0449L17.3171 20.0359L17.5171 20.0139L17.6831 19.9859L17.8221 19.9519L17.9411 19.9109L18.0471 19.8629C18.4234 19.6712 18.7294 19.3652 18.9211 18.9889L18.9651 18.8929L18.9851 18.8419L19.0201 18.7299L19.0351 18.6669L19.0621 18.5259L19.0841 18.3589L19.1091 18.0489L19.1211 17.7949L19.1351 17.1479L19.1401 16.2799V13.0799C19.1404 12.825 19.238 12.5799 19.413 12.3946C19.588 12.2092 19.8271 12.0977 20.0815 12.0828C20.336 12.0678 20.5865 12.1506 20.782 12.3142C20.9774 12.4778 21.103 12.7098 21.1331 12.9629L21.1401 13.0799L21.1371 17.0649L21.1311 17.5079L21.1211 17.8949L21.1051 18.2329L21.0831 18.5289L21.0531 18.7889C21.0071 19.1159 20.9391 19.3659 20.8351 19.6139L20.7511 19.7999L20.7041 19.8949C20.3206 20.6475 19.7088 21.2594 18.9561 21.6429L18.7671 21.7339C18.4881 21.8599 18.2161 21.9409 17.8491 21.9919L17.5891 22.0219L17.2931 22.0439L16.9551 22.0599L16.5681 22.0699L16.1251 22.0759L15.3401 22.0799L7.15514 22.0769L6.71214 22.0709L6.32514 22.0609L5.98714 22.0449L5.69114 22.0229L5.43114 21.9929C5.10414 21.9469 4.85414 21.8789 4.60614 21.7749L4.42014 21.6909L4.32514 21.6439C3.57252 21.2604 2.96062 20.6485 2.57714 19.8959L2.48614 19.7069C2.36014 19.4279 2.27914 19.1559 2.22814 18.7889L2.19814 18.5289L2.17614 18.2329L2.16014 17.8949L2.15014 17.5079L2.14414 17.0649L2.14014 16.2799L2.14314 8.09493L2.14914 7.65193L2.15914 7.26493L2.17514 6.92693L2.19714 6.63093L2.22714 6.37092C2.27314 6.04393 2.34114 5.79393 2.44514 5.54593L2.52914 5.35993L2.57614 5.26493C2.95962 4.51231 3.57152 3.90041 4.32414 3.51693L4.51314 3.42593C4.80443 3.29427 5.11391 3.2073 5.43114 3.16793L5.69114 3.13793L5.98714 3.11593L6.32514 3.09993L6.71214 3.08993L7.15514 3.08393L7.94014 3.07993H11.1401ZM20.9681 3.25193C21.7183 4.00209 22.1397 5.01953 22.1397 6.08043C22.1397 7.14132 21.7183 8.15876 20.9681 8.90893C20.218 9.65909 19.2005 10.0805 18.1396 10.0805C17.0787 10.0805 16.0613 9.65909 15.3111 8.90893C14.561 8.15876 14.1395 7.14132 14.1395 6.08043C14.1395 5.01953 14.561 4.00209 15.3111 3.25193C16.0613 2.50176 17.0787 2.08032 18.1396 2.08032C19.2005 2.08032 20.218 2.50176 20.9681 3.25193ZM16.7251 4.66593C16.3608 5.04313 16.1592 5.54833 16.1638 6.07273C16.1683 6.59712 16.3787 7.09875 16.7495 7.46956C17.1203 7.84038 17.6219 8.05072 18.1463 8.05527C18.6707 8.05983 19.1759 7.85824 19.5531 7.49393C19.9071 7.14002 20.1155 6.66625 20.1371 6.16619C20.1588 5.66613 19.9922 5.17612 19.6701 4.79293L19.5531 4.66593L19.4261 4.54893C19.0429 4.22691 18.5529 4.06027 18.0529 4.08194C17.5528 4.1036 17.079 4.31198 16.7251 4.66593Z" fill="#6C7275"/>
</svg>
