<svg width="24" height="24" viewBox="0 0 24 24" fill="none" xmlns="http://www.w3.org/2000/svg">
<path d="M10 3C11.8565 3 13.637 3.7375 14.9497 5.05025C16.2625 6.36301 17 8.14348 17 10C17.0022 11.5111 16.5134 12.9819 15.607 14.191L20.707 19.293C20.8892 19.4816 20.99 19.7342 20.9877 19.9964C20.9854 20.2586 20.8802 20.5094 20.6948 20.6948C20.5094 20.8802 20.2586 20.9854 19.9964 20.9877C19.7342 20.99 19.4816 20.8892 19.293 20.707L14.191 15.607C12.9819 16.5134 11.5111 17.0022 10 17C9.08075 17 8.1705 16.8189 7.32122 16.4672C6.47194 16.1154 5.70026 15.5998 5.05025 14.9497C4.40024 14.2997 3.88463 13.5281 3.53284 12.6788C3.18106 11.8295 3 10.9193 3 10C3 9.08075 3.18106 8.1705 3.53284 7.32122C3.88463 6.47194 4.40024 5.70026 5.05025 5.05025C5.70026 4.40024 6.47194 3.88463 7.32122 3.53284C8.1705 3.18106 9.08075 3 10 3ZM10 5C8.67392 5 7.40215 5.52678 6.46447 6.46447C5.52678 7.40215 5 8.67392 5 10C5 11.3261 5.52678 12.5979 6.46447 13.5355C7.40215 14.4732 8.67392 15 10 15C11.3261 15 12.5979 14.4732 13.5355 13.5355C14.4732 12.5979 15 11.3261 15 10C15 8.67392 14.4732 7.40215 13.5355 6.46447C12.5979 5.52678 11.3261 5 10 5Z" fill="#3FDD78"/>
</svg>
