<svg width="24" height="24" viewBox="0 0 24 24" fill="none" xmlns="http://www.w3.org/2000/svg">
<path d="M12.5 2C12.8279 1.9994 13.1528 2.06357 13.4558 2.18885C13.7589 2.31412 14.0342 2.49803 14.266 2.73L14.318 2.783C14.7311 3.21911 14.9726 3.78985 14.998 4.39L14.999 4.411L15 4.5V4.514C15 4.555 15.025 4.591 15.062 4.607C15.0804 4.61476 15.1008 4.6168 15.1204 4.61288C15.14 4.60896 15.158 4.59925 15.172 4.585L15.182 4.575L15.245 4.514L15.26 4.5C15.7022 4.09345 16.2765 3.86046 16.877 3.844L16.951 3.843C17.2789 3.84279 17.6036 3.90735 17.9065 4.03296C18.2094 4.15858 18.4845 4.34279 18.716 4.575L19.423 5.282C19.6552 5.51351 19.8394 5.78861 19.965 6.0915C20.0907 6.39438 20.1552 6.7191 20.155 7.047L20.154 7.121C20.1378 7.72184 19.9048 8.29652 19.498 8.739L19.484 8.754L19.423 8.817L19.413 8.827C19.384 8.856 19.376 8.899 19.392 8.937C19.408 8.975 19.444 8.999 19.485 8.999H19.499L19.587 9.001H19.608C20.2085 9.02618 20.7796 9.2677 21.216 9.681L21.269 9.733C21.5013 9.96483 21.6854 10.2403 21.8109 10.5435C21.9363 10.8468 22.0006 11.1718 22 11.5V12.5C22.0006 12.8279 21.9364 13.1528 21.8112 13.4558C21.6859 13.7589 21.502 14.0342 21.27 14.266L21.217 14.318C20.7806 14.7313 20.2095 14.9728 19.609 14.998L19.588 14.999L19.5 15H19.486C19.4661 14.9999 19.4466 15.0058 19.43 15.0168C19.4135 15.0278 19.4006 15.0436 19.393 15.062C19.377 15.099 19.386 15.143 19.414 15.172L19.424 15.182L19.485 15.245L19.499 15.26C19.9056 15.7022 20.1385 16.2765 20.155 16.877L20.156 16.951C20.1562 17.2789 20.0917 17.6036 19.966 17.9065C19.8404 18.2094 19.6562 18.4845 19.424 18.716L18.717 19.423C18.4855 19.6552 18.2104 19.8394 17.9075 19.965C17.6046 20.0907 17.2799 20.1552 16.952 20.155C16.927 20.155 16.902 20.155 16.878 20.154C16.2775 20.1375 15.7032 19.9046 15.261 19.498L15.246 19.484L15.183 19.423L15.173 19.413C15.144 19.384 15.101 19.376 15.063 19.392C15.0446 19.3996 15.0288 19.4125 15.0178 19.429C15.0068 19.4456 15.0009 19.4651 15.001 19.485V19.499L14.999 19.587L14.998 19.608C14.9728 20.2085 14.7313 20.7796 14.318 21.216L14.266 21.269C14.0343 21.5012 13.759 21.6852 13.4559 21.8107C13.1529 21.9361 12.828 22.0005 12.5 22H11.5C11.1721 22.0006 10.8472 21.9364 10.5442 21.8112C10.2411 21.6859 9.9658 21.502 9.734 21.27L9.682 21.217C9.2687 20.7806 9.02717 20.2095 9.002 19.609V19.588L9 19.544V19.486C9 19.445 8.975 19.409 8.938 19.393C8.901 19.377 8.857 19.386 8.828 19.414L8.818 19.424L8.755 19.485L8.74 19.499C8.29752 19.9058 7.72284 20.1388 7.122 20.155L7.048 20.156C6.7201 20.1562 6.39538 20.0917 6.0925 19.966C5.78961 19.8404 5.51451 19.6562 5.283 19.424L4.576 18.717C4.34379 18.4855 4.15958 18.2104 4.03396 17.9075C3.90835 17.6046 3.84379 17.2799 3.844 16.952L3.845 16.878C3.86146 16.2775 4.09445 15.7032 4.501 15.261L4.515 15.246L4.576 15.183L4.586 15.173C4.60025 15.159 4.60996 15.141 4.61388 15.1214C4.6178 15.1018 4.61576 15.0814 4.608 15.063C4.592 15.025 4.556 15.001 4.515 15.001H4.5C4.47066 15.0008 4.44132 15.0002 4.412 14.999L4.391 14.998C3.79085 14.9726 3.22011 14.7311 2.784 14.318L2.731 14.266C2.49885 14.0343 2.31476 13.759 2.18931 13.4559C2.06386 13.1529 1.99953 12.828 2 12.5V11.5C1.9994 11.1721 2.06357 10.8472 2.18885 10.5442C2.31412 10.2411 2.49803 9.9658 2.73 9.734L2.783 9.682C3.21911 9.26892 3.78985 9.02741 4.39 9.002H4.411L4.456 9H4.514C4.555 9 4.591 8.975 4.607 8.938C4.623 8.901 4.614 8.857 4.585 8.828L4.575 8.818L4.514 8.755L4.5 8.74C4.09322 8.29752 3.86022 7.72284 3.844 7.122L3.843 7.048C3.84279 6.7201 3.90735 6.39538 4.03296 6.0925C4.15858 5.78961 4.34279 5.51451 4.575 5.283L5.282 4.576C5.51351 4.34379 5.78861 4.15958 6.0915 4.03396C6.39438 3.90835 6.7191 3.84379 7.047 3.844L7.121 3.845C7.72184 3.86122 8.29652 4.09422 8.739 4.501L8.754 4.515L8.817 4.576L8.827 4.586C8.856 4.615 8.899 4.623 8.937 4.608C8.975 4.593 9 4.555 9 4.514V4.5L9.002 4.412V4.391C9.02741 3.79085 9.26892 3.22011 9.682 2.784L9.734 2.731C9.96571 2.49885 10.241 2.31476 10.5441 2.18931C10.8471 2.06386 11.172 1.99953 11.5 2H12.5ZM12.5 4H11.5C11.3674 4 11.2402 4.05268 11.1465 4.14645C11.0527 4.24022 11 4.3674 11 4.5V4.514C11.0004 4.92966 10.8775 5.33609 10.6468 5.68183C10.4161 6.02757 10.0879 6.29706 9.70393 6.45618C9.31994 6.61531 8.89737 6.6569 8.48972 6.57569C8.08208 6.49448 7.7077 6.29413 7.414 6L7.404 5.99C7.31024 5.89627 7.18309 5.84361 7.0505 5.84361C6.91792 5.84361 6.79077 5.89627 6.697 5.99L5.99 6.697C5.89627 6.79077 5.84361 6.91792 5.84361 7.0505C5.84361 7.18309 5.89627 7.31024 5.99 7.404L6 7.414C6.29413 7.7077 6.49448 8.08208 6.57569 8.48972C6.6569 8.89737 6.61531 9.31994 6.45618 9.70393C6.29706 10.0879 6.02757 10.4161 5.68183 10.6468C5.33609 10.8775 4.92966 11.0004 4.514 11H4.5C4.3674 11 4.24022 11.0527 4.14645 11.1465C4.05268 11.2402 4 11.3674 4 11.5V12.5C4 12.6326 4.05268 12.7598 4.14645 12.8536C4.24022 12.9473 4.3674 13 4.5 13H4.514C4.92966 12.9996 5.33609 13.1225 5.68183 13.3532C6.02757 13.584 6.29706 13.9121 6.45618 14.2961C6.61531 14.6801 6.6569 15.1026 6.57569 15.5103C6.49448 15.9179 6.29413 16.2923 6 16.586L5.99 16.596C5.89627 16.6898 5.84361 16.8169 5.84361 16.9495C5.84361 17.0821 5.89627 17.2092 5.99 17.303L6.697 18.01C6.79077 18.1037 6.91792 18.1564 7.0505 18.1564C7.18309 18.1564 7.31024 18.1037 7.404 18.01L7.414 18C7.7077 17.7059 8.08208 17.5055 8.48972 17.4243C8.89737 17.3431 9.31994 17.3847 9.70393 17.5438C10.0879 17.7029 10.4161 17.9724 10.6468 18.3182C10.8775 18.6639 11.0004 19.0704 11 19.486V19.5C11 19.6326 11.0527 19.7598 11.1465 19.8536C11.2402 19.9473 11.3674 20 11.5 20H12.5C12.6326 20 12.7598 19.9473 12.8536 19.8536C12.9473 19.7598 13 19.6326 13 19.5V19.486C12.9996 19.0704 13.1225 18.6639 13.3532 18.3182C13.584 17.9724 13.9121 17.7029 14.2961 17.5438C14.6801 17.3847 15.1026 17.3431 15.5103 17.4243C15.9179 17.5055 16.2923 17.7059 16.586 18L16.596 18.01C16.6898 18.1037 16.8169 18.1564 16.9495 18.1564C17.0821 18.1564 17.2092 18.1037 17.303 18.01L18.01 17.303C18.1037 17.2092 18.1564 17.0821 18.1564 16.9495C18.1564 16.8169 18.1037 16.6898 18.01 16.596L18 16.586C17.7059 16.2923 17.5055 15.9179 17.4243 15.5103C17.3431 15.1026 17.3847 14.6801 17.5438 14.2961C17.7029 13.9121 17.9724 13.584 18.3182 13.3532C18.6639 13.1225 19.0704 12.9996 19.486 13H19.5C19.6326 13 19.7598 12.9473 19.8536 12.8536C19.9473 12.7598 20 12.6326 20 12.5V11.5C20 11.3674 19.9473 11.2402 19.8536 11.1465C19.7598 11.0527 19.6326 11 19.5 11H19.486C19.0704 11.0004 18.6639 10.8775 18.3182 10.6468C17.9724 10.4161 17.7029 10.0879 17.5438 9.70393C17.3847 9.31994 17.3431 8.89737 17.4243 8.48972C17.5055 8.08208 17.7059 7.7077 18 7.414L18.01 7.404C18.1037 7.31024 18.1564 7.18309 18.1564 7.0505C18.1564 6.91792 18.1037 6.79077 18.01 6.697L17.303 5.99C17.2092 5.89627 17.0821 5.84361 16.9495 5.84361C16.8169 5.84361 16.6898 5.89627 16.596 5.99L16.586 6C16.2923 6.29413 15.9179 6.49448 15.5103 6.57569C15.1026 6.6569 14.6801 6.61531 14.2961 6.45618C13.9121 6.29706 13.584 6.02757 13.3532 5.68183C13.1225 5.33609 12.9996 4.92966 13 4.514V4.5C13 4.3674 12.9473 4.24022 12.8536 4.14645C12.7598 4.05268 12.6326 4 12.5 4ZM12 8C13.0609 8 14.0783 8.42143 14.8284 9.17158C15.5786 9.92172 16 10.9391 16 12C16 13.0609 15.5786 14.0783 14.8284 14.8284C14.0783 15.5786 13.0609 16 12 16C10.9391 16 9.92172 15.5786 9.17158 14.8284C8.42143 14.0783 8 13.0609 8 12C8 10.9391 8.42143 9.92172 9.17158 9.17158C9.92172 8.42143 10.9391 8 12 8ZM12 10C11.4696 10 10.9609 10.2107 10.5858 10.5858C10.2107 10.9609 10 11.4696 10 12C10 12.5304 10.2107 13.0391 10.5858 13.4142C10.9609 13.7893 11.4696 14 12 14C12.5304 14 13.0391 13.7893 13.4142 13.4142C13.7893 13.0391 14 12.5304 14 12C14 11.4696 13.7893 10.9609 13.4142 10.5858C13.0391 10.2107 12.5304 10 12 10Z" fill="#8E55EA"/>
</svg>
