<svg width="28" height="28" viewBox="0 0 28 28" fill="none" xmlns="http://www.w3.org/2000/svg">
<path d="M15.1666 9.81636V16.3987C15.1666 16.7081 15.0437 17.0049 14.8249 17.2237C14.6061 17.4424 14.3093 17.5654 13.9999 17.5654C13.6905 17.5654 13.3938 17.4424 13.175 17.2237C12.9562 17.0049 12.8333 16.7081 12.8333 16.3987V9.81636L11.5254 11.1254C11.3063 11.3443 11.0093 11.4672 10.6996 11.4671C10.3899 11.467 10.0929 11.3438 9.874 11.1248C9.65509 10.9057 9.53216 10.6086 9.53227 10.2989C9.53238 9.98925 9.65552 9.69227 9.87459 9.47336L13.1751 6.17519C13.2832 6.06648 13.4117 5.9802 13.5533 5.92133C13.6948 5.86246 13.8466 5.83215 13.9999 5.83215C14.1532 5.83215 14.305 5.86246 14.4466 5.92133C14.5881 5.9802 14.7167 6.06648 14.8248 6.17519L18.1253 9.47453C18.2336 9.583 18.3196 9.71176 18.3782 9.85346C18.4369 9.99515 18.467 10.147 18.467 10.3004C18.4669 10.4537 18.4367 10.6055 18.3779 10.7472C18.3192 10.8889 18.2331 11.0175 18.1247 11.1259C18.0162 11.2343 17.8874 11.3203 17.7457 11.3789C17.604 11.4376 17.4522 11.4677 17.2988 11.4677C17.1455 11.4676 16.9937 11.4374 16.852 11.3786C16.7103 11.3199 16.5816 11.2338 16.4733 11.1254L15.1666 9.81636ZM9.33325 12.8334C9.64267 12.8334 9.93942 12.9563 10.1582 13.1751C10.377 13.3939 10.4999 13.6906 10.4999 14C10.4999 14.3094 10.377 14.6062 10.1582 14.825C9.93942 15.0438 9.64267 15.1667 9.33325 15.1667H8.16659V19.8334H19.8333V15.1667H18.6666C18.3572 15.1667 18.0604 15.0438 17.8416 14.825C17.6228 14.6062 17.4999 14.3094 17.4999 14C17.4999 13.6906 17.6228 13.3939 17.8416 13.1751C18.0604 12.9563 18.3572 12.8334 18.6666 12.8334H19.8333C20.4521 12.8334 21.0456 13.0792 21.4832 13.5168C21.9208 13.9544 22.1666 14.5479 22.1666 15.1667V19.8334C22.1666 20.4522 21.9208 21.0457 21.4832 21.4833C21.0456 21.9209 20.4521 22.1667 19.8333 22.1667H8.16659C7.54775 22.1667 6.95425 21.9209 6.51667 21.4833C6.07908 21.0457 5.83325 20.4522 5.83325 19.8334V15.1667C5.83325 14.5479 6.07908 13.9544 6.51667 13.5168C6.95425 13.0792 7.54775 12.8334 8.16659 12.8334H9.33325Z" fill="#404040"/>
</svg>
