<svg width="39" height="20" viewBox="0 0 39 20" fill="none" xmlns="http://www.w3.org/2000/svg">
<rect x="0.0600586" width="38" height="20" rx="6" fill="#6C7275" fill-opacity="0.5"/>
<path d="M11.8125 14.1918C11.4545 14.1918 11.1278 14.1051 10.8323 13.9318C10.5369 13.7557 10.3011 13.5199 10.125 13.2244C9.94882 12.9261 9.86075 12.5994 9.86075 12.2443C9.86075 11.8835 9.94882 11.5554 10.125 11.2599C10.3011 10.9645 10.5369 10.7287 10.8323 10.5526C11.1278 10.3764 11.4545 10.2884 11.8125 10.2884H12.6988V8.97585H11.8125C11.4545 8.97585 11.1278 8.8892 10.8323 8.71591C10.5369 8.53977 10.3011 8.3054 10.125 8.01278C9.94882 7.71733 9.86075 7.3892 9.86075 7.02841C9.86075 6.67045 9.94882 6.34375 10.125 6.0483C10.3011 5.75284 10.5369 5.51847 10.8323 5.34517C11.1278 5.16903 11.4545 5.08097 11.8125 5.08097C12.1704 5.08097 12.4971 5.16903 12.7926 5.34517C13.088 5.51847 13.3238 5.75284 13.5 6.0483C13.6789 6.34375 13.7684 6.67045 13.7684 7.02841V7.91051H15.0767V7.02841C15.0767 6.67045 15.1633 6.34375 15.3366 6.0483C15.5127 5.75284 15.7485 5.51847 16.044 5.34517C16.3394 5.16903 16.6676 5.08097 17.0284 5.08097C17.3863 5.08097 17.713 5.16903 18.0085 5.34517C18.3039 5.51847 18.5383 5.75284 18.7116 6.0483C18.8877 6.34375 18.9758 6.67045 18.9758 7.02841C18.9758 7.3892 18.8877 7.71733 18.7116 8.01278C18.5355 8.3054 18.2997 8.53977 18.0042 8.71591C17.7116 8.8892 17.3863 8.97585 17.0284 8.97585H16.1463V10.2884H17.0284C17.3863 10.2884 17.7116 10.3764 18.0042 10.5526C18.2997 10.7287 18.5355 10.9645 18.7116 11.2599C18.8877 11.5554 18.9758 11.8835 18.9758 12.2443C18.9758 12.5994 18.8877 12.9261 18.7116 13.2244C18.5355 13.5199 18.2997 13.7557 18.0042 13.9318C17.7116 14.1051 17.3863 14.1918 17.0284 14.1918C16.6676 14.1918 16.3394 14.1051 16.044 13.9318C15.7485 13.7557 15.5127 13.5199 15.3366 13.2244C15.1633 12.9261 15.0767 12.5994 15.0767 12.2443V11.3537H13.7684V12.2443C13.7684 12.5994 13.6789 12.9261 13.5 13.2244C13.3238 13.5199 13.088 13.7557 12.7926 13.9318C12.4971 14.1051 12.1704 14.1918 11.8125 14.1918ZM11.8125 13.1264C11.9744 13.1264 12.1221 13.0866 12.2556 13.0071C12.392 12.9276 12.5 12.821 12.5795 12.6875C12.659 12.554 12.6988 12.4062 12.6988 12.2443V11.3537H11.8125C11.6505 11.3537 11.5028 11.3949 11.3693 11.4773C11.2358 11.5568 11.1292 11.6634 11.0497 11.7969C10.9701 11.9304 10.9304 12.0795 10.9304 12.2443C10.9304 12.4062 10.9687 12.554 11.0454 12.6875C11.125 12.821 11.2315 12.9276 11.365 13.0071C11.5014 13.0866 11.6505 13.1264 11.8125 13.1264ZM11.8125 7.91051H12.6988V7.02841C12.6988 6.86364 12.659 6.71591 12.5795 6.58523C12.5 6.4517 12.392 6.34517 12.2556 6.26562C12.1221 6.18608 11.9744 6.14631 11.8125 6.14631C11.6505 6.14631 11.5028 6.18608 11.3693 6.26562C11.2358 6.34517 11.1292 6.4517 11.0497 6.58523C10.9701 6.71591 10.9304 6.86364 10.9304 7.02841C10.9304 7.19034 10.9687 7.33949 11.0454 7.47585C11.125 7.60938 11.2315 7.71591 11.365 7.79545C11.5014 7.87216 11.6505 7.91051 11.8125 7.91051ZM16.1463 7.91051H17.0284C17.1903 7.91051 17.338 7.87216 17.4715 7.79545C17.6051 7.71591 17.7102 7.60938 17.7869 7.47585C17.8664 7.34233 17.9062 7.19318 17.9062 7.02841C17.9062 6.86364 17.8664 6.71591 17.7869 6.58523C17.7102 6.4517 17.6051 6.34517 17.4715 6.26562C17.338 6.18608 17.1903 6.14631 17.0284 6.14631C16.8636 6.14631 16.7144 6.18608 16.5809 6.26562C16.4474 6.34517 16.3409 6.4517 16.2613 6.58523C16.1846 6.71591 16.1463 6.86364 16.1463 7.02841V7.91051ZM17.0284 13.1264C17.1903 13.1264 17.338 13.0866 17.4715 13.0071C17.6051 12.9276 17.7102 12.821 17.7869 12.6875C17.8664 12.554 17.9062 12.4062 17.9062 12.2443C17.9062 12.0795 17.8664 11.9304 17.7869 11.7969C17.7102 11.6634 17.6051 11.5568 17.4715 11.4773C17.338 11.3949 17.1903 11.3537 17.0284 11.3537H16.1463V12.2443C16.1463 12.4062 16.1846 12.554 16.2613 12.6875C16.3409 12.821 16.4474 12.9276 16.5809 13.0071C16.7144 13.0866 16.8636 13.1264 17.0284 13.1264ZM13.7684 10.2884H15.0767V8.97585H13.7684V10.2884ZM23.3929 14V5.27273H28.9838V6.59801H24.9739V8.96733H28.6003V10.2926H24.9739V14H23.3929Z" fill="#E8ECEF"/>
</svg>
