<svg width="24" height="24" viewBox="0 0 24 24" fill="none" xmlns="http://www.w3.org/2000/svg">
<path d="M21 14C21.2652 14 21.5195 14.1054 21.7071 14.2929C21.8946 14.4804 22 14.7348 22 15V15.839L21.969 17.195C21.937 17.59 21.865 17.984 21.673 18.362C21.3854 18.9265 20.9264 19.3854 20.362 19.673C19.984 19.866 19.59 19.937 19.195 19.969C18.82 20 18.366 20 17.838 20H17C16.7348 20 16.4804 19.8946 16.2929 19.7071C16.1053 19.5196 16 19.2652 16 19C16 18.7348 16.1053 18.4804 16.2929 18.2929C16.4804 18.1054 16.7348 18 17 18H17.8L19.032 17.976C19.304 17.954 19.404 17.916 19.454 17.891C19.6421 17.7951 19.7951 17.6422 19.891 17.454C19.916 17.404 19.954 17.304 19.976 17.032C19.999 16.749 20 16.376 20 15.8V15C20 14.7348 20.1053 14.4804 20.2929 14.2929C20.4804 14.1054 20.7348 14 21 14ZM2.99998 14C3.26519 14 3.51955 14.1054 3.70708 14.2929C3.89462 14.4804 3.99998 14.7348 3.99998 15V16.196L4.02298 17.032C4.04498 17.304 4.08298 17.404 4.10798 17.454C4.20385 17.6422 4.35682 17.7951 4.54498 17.891C4.59398 17.916 4.69498 17.954 4.96698 17.976C5.24998 17.999 5.62298 18 6.19898 18H6.99998C7.26519 18 7.51955 18.1054 7.70708 18.2929C7.89462 18.4804 7.99998 18.7348 7.99998 19C7.99998 19.2652 7.89462 19.5196 7.70708 19.7071C7.51955 19.8946 7.26519 20 6.99998 20H6.16098C5.63398 20 5.17898 20 4.80498 19.969C4.40998 19.937 4.01598 19.865 3.63798 19.673C3.07352 19.3854 2.61459 18.9265 2.32698 18.362C2.13398 17.984 2.06298 17.59 2.03098 17.195C2.00698 16.895 2.00198 16.544 2.00098 16.146V15C2.00098 14.7348 2.10633 14.4804 2.29387 14.2929C2.48141 14.1054 2.73476 14 2.99998 14ZM7.99998 8C8.26519 8 8.51955 8.10536 8.70708 8.29289C8.89462 8.48043 8.99998 8.73478 8.99998 9V15C8.99998 15.2652 8.89462 15.5196 8.70708 15.7071C8.51955 15.8946 8.26519 16 7.99998 16C7.73476 16 7.48041 15.8946 7.29287 15.7071C7.10533 15.5196 6.99998 15.2652 6.99998 15V9C6.99998 8.73478 7.10533 8.48043 7.29287 8.29289C7.48041 8.10536 7.73476 8 7.99998 8ZM16 8C16.2652 8 16.5195 8.10536 16.7071 8.29289C16.8946 8.48043 17 8.73478 17 9V15C17 15.2652 16.8946 15.5196 16.7071 15.7071C16.5195 15.8946 16.2652 16 16 16C15.7348 16 15.4804 15.8946 15.2929 15.7071C15.1053 15.5196 15 15.2652 15 15V9C15 8.73478 15.1053 8.48043 15.2929 8.29289C15.4804 8.10536 15.7348 8 16 8ZM12 8C12.2652 8 12.5195 8.10536 12.7071 8.29289C12.8946 8.48043 13 8.73478 13 9V13C13 13.2652 12.8946 13.5196 12.7071 13.7071C12.5195 13.8946 12.2652 14 12 14C11.7348 14 11.4804 13.8946 11.2929 13.7071C11.1053 13.5196 11 13.2652 11 13V9C11 8.73478 11.1053 8.48043 11.2929 8.29289C11.4804 8.10536 11.7348 8 12 8ZM6.99998 4C7.26519 4 7.51955 4.10536 7.70708 4.29289C7.89462 4.48043 7.99998 4.73478 7.99998 5C7.99998 5.26522 7.89462 5.51957 7.70708 5.70711C7.51955 5.89464 7.26519 6 6.99998 6H5.80398L4.96798 6.023C4.69598 6.045 4.59598 6.083 4.54598 6.108C4.35782 6.20387 4.20485 6.35685 4.10898 6.545C4.08398 6.594 4.04598 6.695 4.02398 6.967C4.00698 7.18 4.00198 7.442 4.00098 7.803V9C4.00098 9.26522 3.89562 9.51957 3.70808 9.70711C3.52055 9.89464 3.26619 10 3.00098 10C2.73576 10 2.48141 9.89464 2.29387 9.70711C2.10633 9.51957 2.00098 9.26522 2.00098 9V7.854L2.03098 6.805C2.06298 6.41 2.13498 6.016 2.32698 5.638C2.61459 5.07354 3.07352 4.61462 3.63798 4.327C4.01598 4.134 4.40998 4.063 4.80498 4.031C5.17998 4 5.63398 4 6.16098 4H6.99998ZM18.146 4L19.195 4.03C19.59 4.062 19.984 4.134 20.362 4.326C20.9264 4.61362 21.3854 5.07254 21.673 5.637C21.866 6.015 21.937 6.409 21.969 6.804C22 7.179 22 7.633 22 8.16V9C22 9.26522 21.8946 9.51957 21.7071 9.70711C21.5195 9.89464 21.2652 10 21 10C20.7348 10 20.4804 9.89464 20.2929 9.70711C20.1053 9.51957 20 9.26522 20 9V8.2L19.976 6.968C19.954 6.696 19.916 6.596 19.891 6.546C19.7951 6.35785 19.6421 6.20487 19.454 6.109C19.404 6.084 19.304 6.046 19.032 6.024C18.7537 6.00572 18.4748 5.99772 18.196 6H17C16.7348 6 16.4804 5.89464 16.2929 5.70711C16.1053 5.51957 16 5.26522 16 5C16 4.73478 16.1053 4.48043 16.2929 4.29289C16.4804 4.10536 16.7348 4 17 4H18.146Z" fill="#D84C10"/>
</svg>
